<svg width="24" height="24" viewBox="0 0 24 24" fill="none" xmlns="http://www.w3.org/2000/svg">
<path d="M15.741 17.6539H22V4.29395M22 4.29395H3.62289M22 4.29395L12.8163 11.9339L3.62289 4.29395M3.62289 4.29395C3.62289 4.29395 3.62289 5.1666 3.62289 6.06758M12.3826 19.0273C10.9214 20.4943 7.5619 19.5048 4.90418 16.8183C2.24645 14.1318 1.19947 10.7723 2.6664 9.31111L4.26563 7.70612L7.3548 10.7953L6.20428 11.9458C5.97311 12.1804 5.84353 12.4966 5.84353 12.826C5.84353 13.1553 5.97311 13.4715 6.20428 13.7061L7.9876 15.4895C8.22247 15.7224 8.53985 15.853 8.87063 15.853C9.2014 15.853 9.51879 15.7224 9.75366 15.4895L10.9042 14.3389L13.9934 17.4281L12.3826 19.0273Z" stroke="black" stroke-miterlimit="10" stroke-linecap="round" stroke-linejoin="round"/>
</svg>
