<svg width="24" height="24" viewBox="0 0 24 24" fill="none" xmlns="http://www.w3.org/2000/svg">
<path d="M16.3503 17.3958C15.0923 18.1934 13.6003 18.6554 12.0005 18.6554C8.01318 18.6554 4.69596 15.7864 4.00049 12.0002C4.3234 10.2422 5.2115 8.68197 6.46944 7.51485L4.15727 5.20269L5.20304 4.15692L19.8437 18.7976L18.798 19.8434L16.3503 17.3958ZM7.51588 8.56129C6.53322 9.45637 5.81673 10.6447 5.50984 12.0002C6.18826 14.9964 8.86836 17.1764 12.0005 17.1764C13.1832 17.1764 14.3015 16.8656 15.2719 16.3173L13.772 14.8175C13.2591 15.1407 12.6516 15.3278 12.0005 15.3278C10.1627 15.3278 8.67289 13.8379 8.67289 12.0002C8.67289 11.349 8.85991 10.7415 9.18316 10.2286L7.51588 8.56129ZM12.6761 13.7215L10.2792 11.3246C10.197 11.5339 10.1518 11.7617 10.1518 12.0002C10.1518 13.0211 10.9795 13.8488 12.0005 13.8488C12.2389 13.8488 12.4668 13.8037 12.6761 13.7215ZM18.5126 15.396L17.4546 14.338C17.9396 13.6467 18.2971 12.8568 18.4911 12.0002C17.8127 9.00384 15.1326 6.82388 12.0005 6.82388C11.375 6.82388 10.7675 6.91082 10.1904 7.07384L9.02354 5.90694C9.94552 5.54419 10.9497 5.34495 12.0005 5.34495C15.9878 5.34495 19.305 8.2139 20.0005 12.0002C19.7696 13.257 19.2499 14.4127 18.5126 15.396ZM11.7954 8.67877C11.8632 8.67464 11.9316 8.67255 12.0005 8.67255C13.8382 8.67255 15.3281 10.1624 15.3281 12.0002C15.3281 12.069 15.326 12.1374 15.3219 12.2052L11.7954 8.67877Z" fill="black"/>
</svg>
