<svg width="24" height="24" viewBox="0 0 24 24" fill="none" xmlns="http://www.w3.org/2000/svg">
<path d="M12.0005 5.34479C15.9878 5.34479 19.305 8.21374 20.0005 12C19.305 15.7862 15.9878 18.6552 12.0005 18.6552C8.01318 18.6552 4.69596 15.7862 4.00049 12C4.69596 8.21374 8.01318 5.34479 12.0005 5.34479ZM12.0005 17.1762C15.1326 17.1762 17.8127 14.9963 18.4911 12C17.8127 9.00368 15.1326 6.82372 12.0005 6.82372C8.86836 6.82372 6.18826 9.00368 5.50984 12C6.18826 14.9963 8.86836 17.1762 12.0005 17.1762ZM12.0005 15.3276C10.1627 15.3276 8.67289 13.8378 8.67289 12C8.67289 10.1622 10.1627 8.67238 12.0005 8.67238C13.8382 8.67238 15.3281 10.1622 15.3281 12C15.3281 13.8378 13.8382 15.3276 12.0005 15.3276ZM12.0005 13.8486C13.0215 13.8486 13.8492 13.021 13.8492 12C13.8492 10.979 13.0215 10.1513 12.0005 10.1513C10.9795 10.1513 10.1518 10.979 10.1518 12C10.1518 13.021 10.9795 13.8486 12.0005 13.8486Z" fill="black"/>
</svg>
