<svg width="24" height="24" viewBox="0 0 24 24" fill="none" xmlns="http://www.w3.org/2000/svg">
<path d="M12.0059 21.0059C16.9764 21.0059 21.0059 16.9764 21.0059 12.0059C21.0059 7.0353 16.9764 3.00586 12.0059 3.00586M12.0059 21.0059C7.0353 21.0059 3.00586 16.9764 3.00586 12.0059M12.0059 21.0059C13.6627 21.0059 15.0059 16.9764 15.0059 12.0059C15.0059 7.0353 13.6627 3.00586 12.0059 3.00586M12.0059 21.0059C10.349 21.0059 9.00587 16.9764 9.00587 12.0059C9.00587 7.0353 10.349 3.00586 12.0059 3.00586M3.00586 12.0059C3.00586 7.0353 7.0353 3.00586 12.0059 3.00586M3.00586 12.0059L20.9902 12.0058" stroke="black" stroke-width="1.5" stroke-miterlimit="10"/>
</svg>
