<svg width="24" height="24" viewBox="0 0 24 24" fill="none" xmlns="http://www.w3.org/2000/svg">
<path fill-rule="evenodd" clip-rule="evenodd" d="M12 20C16.4183 20 20 16.4183 20 12C20 7.58172 16.4183 4 12 4C7.58172 4 4 7.58172 4 12C4 16.4183 7.58172 20 12 20ZM15.2612 9.54692C15.4844 9.32376 15.4844 8.96195 15.2612 8.7388C15.038 8.51564 14.6762 8.51564 14.4531 8.7388L12 11.1919L9.54692 8.7388C9.32376 8.51564 8.96195 8.51564 8.7388 8.7388C8.51564 8.96195 8.51564 9.32376 8.7388 9.54692L11.1919 12L8.7388 14.4531C8.51564 14.6762 8.51564 15.038 8.7388 15.2612C8.96195 15.4844 9.32376 15.4844 9.54692 15.2612L12 12.8081L14.4531 15.2612C14.6762 15.4844 15.038 15.4844 15.2612 15.2612C15.4844 15.038 15.4844 14.6762 15.2612 14.4531L12.8081 12L15.2612 9.54692Z" fill="black"/>
</svg>
