<svg width="20" height="20" viewBox="0 0 20 20" fill="none" xmlns="http://www.w3.org/2000/svg">
<path d="M10.002 0C12.719 0 13.058 0.00999994 14.124 0.06C15.189 0.11 15.914 0.277 16.552 0.525C17.212 0.779 17.768 1.123 18.324 1.678C18.8324 2.1779 19.2259 2.78259 19.477 3.45C19.724 4.087 19.892 4.813 19.942 5.878C19.989 6.944 20.002 7.283 20.002 10C20.002 12.717 19.992 13.056 19.942 14.122C19.892 15.187 19.724 15.912 19.477 16.55C19.2266 17.2178 18.8331 17.8226 18.324 18.322C17.8239 18.8303 17.2193 19.2238 16.552 19.475C15.915 19.722 15.189 19.89 14.124 19.94C13.058 19.987 12.719 20 10.002 20C7.28495 20 6.94595 19.99 5.87995 19.94C4.81495 19.89 4.08995 19.722 3.45195 19.475C2.78428 19.2245 2.17948 18.8309 1.67995 18.322C1.17136 17.8222 0.777885 17.2175 0.526953 16.55C0.278953 15.913 0.111953 15.187 0.0619531 14.122C0.0149531 13.056 0.00195312 12.717 0.00195312 10C0.00195312 7.283 0.0119531 6.944 0.0619531 5.878C0.111953 4.812 0.278953 4.088 0.526953 3.45C0.777189 2.78218 1.17076 2.17732 1.67995 1.678C2.17962 1.16923 2.78438 0.775729 3.45195 0.525C4.08995 0.277 4.81395 0.11 5.87995 0.06C6.94595 0.0129999 7.28495 0 10.002 0ZM10.002 5C8.67587 5 7.4041 5.52678 6.46642 6.46447C5.52874 7.40215 5.00195 8.67392 5.00195 10C5.00195 11.3261 5.52874 12.5979 6.46642 13.5355C7.4041 14.4732 8.67587 15 10.002 15C11.328 15 12.5998 14.4732 13.5375 13.5355C14.4752 12.5979 15.002 11.3261 15.002 10C15.002 8.67392 14.4752 7.40215 13.5375 6.46447C12.5998 5.52678 11.328 5 10.002 5ZM16.502 4.75C16.502 4.41848 16.3703 4.10054 16.1358 3.86612C15.9014 3.6317 15.5835 3.5 15.252 3.5C14.9204 3.5 14.6025 3.6317 14.3681 3.86612C14.1336 4.10054 14.002 4.41848 14.002 4.75C14.002 5.08152 14.1336 5.39946 14.3681 5.63388C14.6025 5.8683 14.9204 6 15.252 6C15.5835 6 15.9014 5.8683 16.1358 5.63388C16.3703 5.39946 16.502 5.08152 16.502 4.75ZM10.002 7C10.7976 7 11.5607 7.31607 12.1233 7.87868C12.6859 8.44129 13.002 9.20435 13.002 10C13.002 10.7957 12.6859 11.5587 12.1233 12.1213C11.5607 12.6839 10.7976 13 10.002 13C9.2063 13 8.44324 12.6839 7.88063 12.1213C7.31802 11.5587 7.00195 10.7957 7.00195 10C7.00195 9.20435 7.31802 8.44129 7.88063 7.87868C8.44324 7.31607 9.2063 7 10.002 7Z" fill="#666666"/>
</svg>
