<svg width="24" height="24" viewBox="0 0 24 24" fill="none" xmlns="http://www.w3.org/2000/svg">
<path d="M14.5858 6.58579C15.3668 5.80474 16.6331 5.80474 17.4142 6.58579C18.1952 7.36683 18.1952 8.63316 17.4142 9.41421L14.4142 12.4142C13.6331 13.1953 12.3668 13.1953 11.5858 12.4142C11.1952 12.0237 10.5621 12.0237 10.1716 12.4142C9.78103 12.8047 9.78103 13.4379 10.1716 13.8284C11.7337 15.3905 14.2663 15.3905 15.8284 13.8284L18.8284 10.8284C20.3905 9.26633 20.3905 6.73367 18.8284 5.17157C17.2663 3.60948 14.7337 3.60948 13.1716 5.17157L11.6716 6.67157C11.281 7.0621 11.281 7.69526 11.6716 8.08579C12.0621 8.47631 12.6952 8.47631 13.0858 8.08579L14.5858 6.58579Z" fill="black"/>
<path d="M9.58579 11.5858C10.3668 10.8047 11.6332 10.8047 12.4142 11.5858C12.8047 11.9763 13.4379 11.9763 13.8284 11.5858C14.219 11.1953 14.219 10.5621 13.8284 10.1716C12.2663 8.60948 9.73367 8.60948 8.17157 10.1716L5.17157 13.1716C3.60948 14.7337 3.60948 17.2663 5.17157 18.8284C6.73367 20.3905 9.26633 20.3905 10.8284 18.8284L12.3284 17.3284C12.719 16.9379 12.719 16.3047 12.3284 15.9142C11.9379 15.5237 11.3047 15.5237 10.9142 15.9142L9.41421 17.4142C8.63316 18.1953 7.36683 18.1953 6.58579 17.4142C5.80474 16.6332 5.80474 15.3668 6.58579 14.5858L9.58579 11.5858Z" fill="black"/>
</svg>
