<svg width="24" height="24" viewBox="0 0 24 24" fill="none" xmlns="http://www.w3.org/2000/svg">
<path d="M16.8381 5.94286L7.1619 10.781M16.8381 18.0571L7.1619 13.219M22 4.72381C22 6.22813 20.7805 7.44762 19.2762 7.44762C17.7719 7.44762 16.5524 6.22813 16.5524 4.72381C16.5524 3.21949 17.7719 2 19.2762 2C20.7805 2 22 3.21949 22 4.72381ZM7.44762 12C7.44762 13.5043 6.22813 14.7238 4.72381 14.7238C3.21949 14.7238 2 13.5043 2 12C2 10.4957 3.21949 9.27619 4.72381 9.27619C6.22813 9.27619 7.44762 10.4957 7.44762 12ZM22 19.2762C22 20.7805 20.7805 22 19.2762 22C17.7719 22 16.5524 20.7805 16.5524 19.2762C16.5524 17.7719 17.7719 16.5524 19.2762 16.5524C20.7805 16.5524 22 17.7719 22 19.2762Z" stroke="black" stroke-width="1.5" stroke-miterlimit="10"/>
</svg>
