<svg width="20" height="15" viewBox="0 0 20 15" fill="none" xmlns="http://www.w3.org/2000/svg">
<path fill-rule="evenodd" clip-rule="evenodd" d="M16.82 0.696055C18.0188 0.763555 18.6075 0.941054 19.15 1.90605C19.715 2.8698 20 4.52981 20 7.45355V7.45731V7.46355C20 10.3736 19.715 12.0461 19.1513 12.9998C18.6087 13.9648 18.02 14.1398 16.8212 14.2211C15.6225 14.2898 12.6112 14.3311 10.0025 14.3311C7.38875 14.3311 4.37625 14.2898 3.17875 14.2198C1.9825 14.1386 1.39375 13.9636 0.84625 12.9986C0.2875 12.0448 0 10.3723 0 7.4623V7.45981V7.45605V7.4523C0 4.52981 0.2875 2.8698 0.84625 1.90605C1.39375 0.939805 1.98375 0.763555 3.18 0.694805C4.37625 0.614805 7.38875 0.581055 10.0025 0.581055C12.6112 0.581055 15.6225 0.614805 16.82 0.696055ZM13.75 7.45605L7.5 3.70605V11.2061L13.75 7.45605Z" fill="#666666"/>
</svg>
